<svg xmlns="http://www.w3.org/2000/svg" viewBox="0 0 512.001 512.001" style="enable-background:new 0 0 512.001 512.001" xml:space="preserve"><path style="fill:#76c1b3" d="M360.115 504.435H107.162c-9.007 0-16.308-7.301-16.308-16.308V23.874c0-9.007 7.301-16.308 16.308-16.308h297.505c9.007 0 16.308 7.301 16.308 16.308v419.7c.001 33.613-27.247 60.861-60.86 60.861z"/><path style="fill:#52a397" d="M420.977 384.476v59.093c0 33.614-27.25 60.864-60.864 60.864H107.162c-9.007 0-16.308-7.301-16.308-16.308V445.34h269.26c33.618-.002 60.863-27.259 60.863-60.864z"/><path style="fill:#f5c350" d="M138.508 49.75h235.195v206.255H138.508z"/><circle style="fill:#52a397" cx="201.423" cy="360.943" r="62.914"/><path style="fill:#f9cb70" d="M373.703 49.75v23.889L191.342 256h-52.836v-19.104L325.652 49.75z"/><path style="fill:#f5c350" d="M239.03 345.473h-22.137v-22.137h-30.936v22.137h-22.138v30.936h22.138v22.137h30.936v-22.137h22.137z"/><circle style="fill:#e66480" cx="351.249" cy="316.367" r="22.457"/><circle style="fill:#2389a2" cx="315.813" cy="388.078" r="22.457"/><path d="M304.069 496.869H107.248c-4.821 0-8.743-3.922-8.743-8.743V337.375a7.565 7.565 0 0 0-15.13 0v150.752c0 13.164 10.71 23.874 23.874 23.874H304.07a7.565 7.565 0 0 0 7.565-7.565 7.568 7.568 0 0 0-7.566-7.567zM404.753 0H107.248C94.084 0 83.374 10.71 83.374 23.874v285.458a7.565 7.565 0 0 0 15.13 0V23.874c0-4.821 3.922-8.743 8.743-8.743h297.505c4.821 0 8.743 3.922 8.743 8.743v46.415h-8.534a7.565 7.565 0 0 0 0 15.13h8.534v12.276h-8.534a7.565 7.565 0 0 0 0 15.13h8.534v12.276h-8.534a7.565 7.565 0 0 0 0 15.13h8.534v12.276h-8.534a7.565 7.565 0 0 0 0 15.13h8.534v12.276h-8.534a7.565 7.565 0 0 0 0 15.13h8.534v12.276h-8.534a7.565 7.565 0 0 0 0 15.13h8.534v221.117c0 29.387-23.908 53.295-53.295 53.295h-26.975a7.565 7.565 0 0 0 0 15.13H360.2c37.73 0 68.426-30.696 68.426-68.426V23.874C428.627 10.71 417.917 0 404.753 0z"/><path d="M373.79 160.44a7.565 7.565 0 0 0 7.565-7.565V49.751a7.565 7.565 0 0 0-7.565-7.565H138.593a7.565 7.565 0 0 0-7.565 7.565V256a7.565 7.565 0 0 0 7.565 7.565H373.79a7.565 7.565 0 0 0 7.565-7.565v-73.637a7.565 7.565 0 0 0-15.13 0v66.072H146.159V57.317h220.066v95.558a7.565 7.565 0 0 0 7.565 7.565zM163.904 383.974h14.572v14.572a7.565 7.565 0 0 0 7.565 7.565h30.936a7.565 7.565 0 0 0 7.565-7.565v-14.572h14.572a7.565 7.565 0 0 0 7.565-7.565v-30.936a7.565 7.565 0 0 0-7.565-7.565h-14.572v-14.572a7.565 7.565 0 0 0-7.565-7.565h-30.936a7.565 7.565 0 0 0-7.565 7.565v14.572h-14.572a7.565 7.565 0 0 0-7.565 7.565v30.936a7.565 7.565 0 0 0 7.565 7.565zm7.566-30.935h14.572a7.565 7.565 0 0 0 7.565-7.565v-14.572h15.805v14.572a7.565 7.565 0 0 0 7.565 7.565h14.572v15.805h-14.572a7.565 7.565 0 0 0-7.565 7.565v14.572h-15.805v-14.572a7.565 7.565 0 0 0-7.565-7.565H171.47v-15.805z"/><path d="M201.51 431.425c38.865 0 70.484-31.619 70.484-70.484s-31.619-70.484-70.484-70.484-70.484 31.619-70.484 70.484 31.618 70.484 70.484 70.484zm0-125.837c30.522 0 55.353 24.831 55.353 55.353s-24.831 55.353-55.353 55.353-55.353-24.831-55.353-55.353 24.83-55.353 55.353-55.353zM138.593 287.775h8.299a7.565 7.565 0 0 0 0-15.13h-8.299a7.565 7.565 0 0 0 0 15.13zM351.331 286.346c-16.555 0-30.023 13.469-30.023 30.023s13.469 30.023 30.023 30.023c16.554 0 30.023-13.469 30.023-30.023s-13.469-30.023-30.023-30.023zm0 44.914c-8.212 0-14.892-6.681-14.892-14.892s6.681-14.892 14.892-14.892 14.892 6.681 14.892 14.892-6.681 14.892-14.892 14.892zM345.917 388.08c0-16.555-13.469-30.023-30.023-30.023-16.554 0-30.023 13.469-30.023 30.023 0 16.554 13.469 30.023 30.023 30.023 16.554 0 30.023-13.469 30.023-30.023zm-30.024 14.892c-8.212 0-14.892-6.681-14.892-14.892 0-8.212 6.681-14.892 14.892-14.892s14.892 6.681 14.892 14.892c.001 8.211-6.68 14.892-14.892 14.892zM125.196 450.55a7.565 7.565 0 0 0-7.565 7.565v22.839a7.565 7.565 0 0 0 15.13 0v-22.839a7.565 7.565 0 0 0-7.565-7.565zM139.327 458.116v22.839a7.565 7.565 0 0 0 15.13 0v-22.839a7.565 7.565 0 0 0-15.13 0zM161.023 458.116v22.839a7.565 7.565 0 0 0 15.13 0v-22.839a7.565 7.565 0 0 0-15.13 0z"/></svg>